<svg width="331" height="20" viewBox="0 0 331 20" fill="none" xmlns="http://www.w3.org/2000/svg">
<path d="M6.02 15.24C4.99333 15.24 4.1 15.0533 3.34 14.68C2.58 14.3067 1.99333 13.7867 1.58 13.12C1.16667 12.4533 0.96 11.68 0.96 10.8H2.72C2.72 11.3467 2.84667 11.8533 3.1 12.32C3.35333 12.7733 3.72 13.14 4.2 13.42C4.69333 13.6867 5.3 13.82 6.02 13.82C6.64667 13.82 7.18 13.72 7.62 13.52C8.07333 13.3067 8.41333 13.02 8.64 12.66C8.88 12.3 9 11.8933 9 11.44C9 10.9333 8.88667 10.5133 8.66 10.18C8.44667 9.83333 8.14667 9.55333 7.76 9.34C7.37333 9.11333 6.92667 8.91333 6.42 8.74C5.91333 8.56667 5.36667 8.38667 4.78 8.2C3.60667 7.82667 2.75333 7.36 2.22 6.8C1.7 6.22667 1.44 5.49333 1.44 4.6C1.44 3.84 1.61333 3.17333 1.96 2.6C2.32 2.02667 2.82667 1.58 3.48 1.26C4.14667 0.926666 4.93333 0.76 5.84 0.76C6.73333 0.76 7.50667 0.926666 8.16 1.26C8.82667 1.59333 9.34667 2.05333 9.72 2.64C10.0933 3.21333 10.28 3.88 10.28 4.64H8.52C8.52 4.25333 8.42 3.87333 8.22 3.5C8.02 3.12667 7.71333 2.82 7.3 2.58C6.9 2.32667 6.39333 2.2 5.78 2.2C5.27333 2.18667 4.82 2.27333 4.42 2.46C4.03333 2.63333 3.72667 2.88667 3.5 3.22C3.28667 3.55333 3.18 3.96 3.18 4.44C3.18 4.89333 3.27333 5.26 3.46 5.54C3.66 5.82 3.94 6.06 4.3 6.26C4.67333 6.44667 5.10667 6.62 5.6 6.78C6.09333 6.94 6.64 7.12 7.24 7.32C7.92 7.54667 8.52 7.82667 9.04 8.16C9.57333 8.48 9.98667 8.89333 10.28 9.4C10.5867 9.90667 10.74 10.5533 10.74 11.34C10.74 12.0067 10.56 12.64 10.2 13.24C9.85333 13.8267 9.33333 14.3067 8.64 14.68C7.94667 15.0533 7.07333 15.24 6.02 15.24ZM17.4988 15.24C16.5654 15.24 15.7388 15.0133 15.0188 14.56C14.2988 14.1067 13.7321 13.4667 13.3188 12.64C12.9188 11.8133 12.7188 10.8467 12.7188 9.74C12.7188 8.63333 12.9188 7.66667 13.3188 6.84C13.7321 6.01333 14.2988 5.37333 15.0188 4.92C15.7521 4.46667 16.5921 4.24 17.5388 4.24C18.5521 4.24 19.3988 4.46667 20.0788 4.92C20.7588 5.37333 21.2721 5.98 21.6188 6.74C21.9654 7.5 22.1388 8.33333 22.1388 9.24C22.1388 9.37333 22.1388 9.50667 22.1388 9.64C22.1388 9.77333 22.1321 9.93333 22.1188 10.12H13.9788V8.82H20.4988C20.4721 7.79333 20.1721 7.01333 19.5988 6.48C19.0388 5.93333 18.3388 5.66 17.4988 5.66C16.9388 5.66 16.4188 5.8 15.9388 6.08C15.4721 6.34667 15.0921 6.74667 14.7988 7.28C14.5054 7.81333 14.3587 8.48 14.3587 9.28V9.84C14.3587 10.72 14.5054 11.46 14.7988 12.06C15.0921 12.6467 15.4721 13.0867 15.9388 13.38C16.4188 13.6733 16.9388 13.82 17.4988 13.82C18.2454 13.82 18.8321 13.68 19.2588 13.4C19.6854 13.1067 19.9988 12.6933 20.1988 12.16H21.8588C21.6988 12.7467 21.4188 13.2733 21.0188 13.74C20.6321 14.2067 20.1388 14.5733 19.5388 14.84C18.9521 15.1067 18.2721 15.24 17.4988 15.24ZM27.7469 15.24C26.9469 15.24 26.2802 15.0933 25.7469 14.8C25.2135 14.4933 24.8135 14.0933 24.5469 13.6C24.2802 13.0933 24.1469 12.5533 24.1469 11.98C24.1469 11.2867 24.3202 10.7 24.6669 10.22C25.0269 9.72667 25.5269 9.35333 26.1669 9.1C26.8069 8.84667 27.5535 8.72 28.4069 8.72H31.0269C31.0269 8.04 30.9469 7.47333 30.7869 7.02C30.6269 6.56667 30.3669 6.22667 30.0069 6C29.6469 5.77333 29.1669 5.66 28.5669 5.66C27.9669 5.66 27.4535 5.81333 27.0269 6.12C26.6002 6.41333 26.3335 6.85333 26.2269 7.44H24.5069C24.5869 6.74667 24.8202 6.16667 25.2069 5.7C25.5935 5.22 26.0802 4.86 26.6669 4.62C27.2669 4.36667 27.9002 4.24 28.5669 4.24C29.5135 4.24 30.2935 4.41333 30.9069 4.76C31.5202 5.09333 31.9735 5.56667 32.2669 6.18C32.5602 6.78 32.7069 7.49333 32.7069 8.32V15H31.2069L31.1069 13.2C30.9735 13.48 30.8002 13.7467 30.5869 14C30.3869 14.24 30.1469 14.4533 29.8669 14.64C29.5869 14.8267 29.2669 14.9733 28.9069 15.08C28.5602 15.1867 28.1735 15.24 27.7469 15.24ZM27.9869 13.82C28.4269 13.82 28.8335 13.72 29.2069 13.52C29.5802 13.32 29.9002 13.0533 30.1669 12.72C30.4469 12.3733 30.6602 11.9867 30.8069 11.56C30.9535 11.1333 31.0269 10.6867 31.0269 10.22V10.02H28.5469C27.9202 10.02 27.4069 10.1 27.0069 10.26C26.6202 10.42 26.3402 10.6467 26.1669 10.94C25.9935 11.22 25.9069 11.54 25.9069 11.9C25.9069 12.2867 25.9869 12.6267 26.1469 12.92C26.3069 13.2 26.5402 13.42 26.8469 13.58C27.1669 13.74 27.5469 13.82 27.9869 13.82ZM35.4825 15V4.48H37.0025L37.1225 6.4C37.3625 5.92 37.6758 5.52 38.0625 5.2C38.4492 4.88 38.9158 4.64 39.4625 4.48C40.0225 4.32 40.6492 4.24 41.3425 4.24V6H40.3025C39.9025 6 39.5158 6.05333 39.1425 6.16C38.7692 6.26667 38.4292 6.44 38.1225 6.68C37.8292 6.92 37.5958 7.24667 37.4225 7.66C37.2492 8.07333 37.1625 8.59333 37.1625 9.22V15H35.4825ZM47.4444 15.24C46.4844 15.24 45.631 15.0133 44.8844 14.56C44.1377 14.0933 43.551 13.4467 43.1244 12.62C42.6977 11.7933 42.4844 10.8333 42.4844 9.74C42.4844 8.63333 42.6977 7.67333 43.1244 6.86C43.551 6.03333 44.1377 5.39333 44.8844 4.94C45.631 4.47333 46.4844 4.24 47.4444 4.24C48.6444 4.24 49.6444 4.56 50.4444 5.2C51.2577 5.84 51.7777 6.7 52.0044 7.78H50.2844C50.1377 7.11333 49.7977 6.6 49.2644 6.24C48.7444 5.86667 48.131 5.68 47.4244 5.68C46.811 5.68 46.2577 5.83333 45.7644 6.14C45.2844 6.44667 44.9044 6.9 44.6244 7.5C44.3444 8.1 44.2044 8.84667 44.2044 9.74C44.2044 10.4067 44.2844 11 44.4444 11.52C44.6044 12.0267 44.8244 12.4533 45.1044 12.8C45.3977 13.1333 45.7377 13.3867 46.1244 13.56C46.5244 13.7333 46.9577 13.82 47.4244 13.82C47.9044 13.82 48.3377 13.74 48.7244 13.58C49.1244 13.4067 49.4577 13.16 49.7244 12.84C50.0044 12.52 50.191 12.14 50.2844 11.7H52.0044C51.791 12.7533 51.271 13.6067 50.4444 14.26C49.631 14.9133 48.631 15.24 47.4444 15.24ZM54.4473 15V0.599999H56.1273V6.18C56.474 5.58 56.9473 5.10667 57.5473 4.76C58.1473 4.41333 58.794 4.24 59.4873 4.24C60.3007 4.24 60.9873 4.39333 61.5473 4.7C62.1207 4.99333 62.554 5.44667 62.8473 6.06C63.154 6.67333 63.3073 7.45333 63.3073 8.4V15H61.6473V8.58C61.6473 7.62 61.4207 6.9 60.9673 6.42C60.514 5.92667 59.9007 5.68 59.1273 5.68C58.5807 5.68 58.0807 5.81333 57.6273 6.08C57.174 6.33333 56.8073 6.71333 56.5273 7.22C56.2607 7.72667 56.1273 8.34 56.1273 9.06V15H54.4473ZM75.5391 15C74.9391 15 74.4191 14.9067 73.9791 14.72C73.5391 14.5333 73.1991 14.22 72.9591 13.78C72.7324 13.3267 72.6191 12.72 72.6191 11.96V5.9H70.7791V4.48H72.6191L72.8391 1.86H74.2991V4.48H77.2791V5.9H74.2991V11.96C74.2991 12.5867 74.4257 13.0133 74.6791 13.24C74.9324 13.4533 75.3791 13.56 76.0191 13.56H77.2391V15H75.5391ZM79.5841 15V0.599999H81.2641V6.18C81.6107 5.58 82.0841 5.10667 82.6841 4.76C83.2841 4.41333 83.9307 4.24 84.6241 4.24C85.4374 4.24 86.1241 4.39333 86.6841 4.7C87.2574 4.99333 87.6907 5.44667 87.9841 6.06C88.2907 6.67333 88.4441 7.45333 88.4441 8.4V15H86.7841V8.58C86.7841 7.62 86.5574 6.9 86.1041 6.42C85.6507 5.92667 85.0374 5.68 84.2641 5.68C83.7174 5.68 83.2174 5.81333 82.7641 6.08C82.3107 6.33333 81.9441 6.71333 81.6641 7.22C81.3974 7.72667 81.2641 8.34 81.2641 9.06V15H79.5841ZM91.2247 15V4.48H92.7447L92.8647 6.4C93.1047 5.92 93.418 5.52 93.8047 5.2C94.1914 4.88 94.658 4.64 95.2047 4.48C95.7647 4.32 96.3914 4.24 97.0847 4.24V6H96.0447C95.6447 6 95.258 6.05333 94.8847 6.16C94.5114 6.26667 94.1714 6.44 93.8647 6.68C93.5714 6.92 93.338 7.24667 93.1647 7.66C92.9914 8.07333 92.9047 8.59333 92.9047 9.22V15H91.2247ZM103.167 15.24C102.193 15.24 101.333 15.0133 100.587 14.56C99.8399 14.1067 99.2599 13.4667 98.8466 12.64C98.4332 11.8133 98.2266 10.8467 98.2266 9.74C98.2266 8.62 98.4332 7.65333 98.8466 6.84C99.2732 6.01333 99.8599 5.37333 100.607 4.92C101.367 4.46667 102.233 4.24 103.207 4.24C104.193 4.24 105.053 4.46667 105.787 4.92C106.533 5.37333 107.113 6.01333 107.527 6.84C107.94 7.65333 108.147 8.62 108.147 9.74C108.147 10.8467 107.933 11.8133 107.507 12.64C107.093 13.4667 106.513 14.1067 105.767 14.56C105.02 15.0133 104.153 15.24 103.167 15.24ZM103.167 13.8C103.78 13.8 104.333 13.6533 104.827 13.36C105.32 13.0533 105.707 12.6 105.987 12C106.28 11.3867 106.427 10.6333 106.427 9.74C106.427 8.83333 106.287 8.08 106.007 7.48C105.727 6.88 105.34 6.43333 104.847 6.14C104.367 5.83333 103.82 5.68 103.207 5.68C102.607 5.68 102.06 5.83333 101.567 6.14C101.073 6.43333 100.68 6.88 100.387 7.48C100.093 8.08 99.9466 8.83333 99.9466 9.74C99.9466 10.6333 100.087 11.3867 100.367 12C100.66 12.6 101.047 13.0533 101.527 13.36C102.02 13.6533 102.567 13.8 103.167 13.8ZM114.36 15.24C113.587 15.24 112.913 15.0933 112.34 14.8C111.767 14.5067 111.32 14.06 111 13.46C110.68 12.8467 110.52 12.0867 110.52 11.18V4.48H112.2V11C112.2 11.9333 112.427 12.6333 112.88 13.1C113.347 13.5667 113.967 13.8 114.74 13.8C115.273 13.8 115.753 13.68 116.18 13.44C116.607 13.1867 116.947 12.82 117.2 12.34C117.467 11.86 117.6 11.2733 117.6 10.58V4.48H119.28V15H117.76L117.66 13.32C117.38 13.9333 116.947 14.4067 116.36 14.74C115.787 15.0733 115.12 15.24 114.36 15.24ZM126.243 19.64C125.296 19.64 124.463 19.52 123.743 19.28C123.036 19.0533 122.483 18.7 122.083 18.22C121.696 17.74 121.503 17.1467 121.503 16.44C121.503 16.1067 121.563 15.76 121.683 15.4C121.816 15.04 122.036 14.6933 122.343 14.36C122.663 14.0267 123.11 13.7267 123.683 13.46L124.963 14.14C124.203 14.4333 123.71 14.7733 123.483 15.16C123.256 15.5467 123.143 15.92 123.143 16.28C123.143 16.72 123.27 17.0867 123.523 17.38C123.79 17.6733 124.156 17.8933 124.623 18.04C125.09 18.1867 125.63 18.26 126.243 18.26C126.843 18.26 127.356 18.18 127.783 18.02C128.223 17.8733 128.556 17.6533 128.783 17.36C129.023 17.08 129.143 16.7467 129.143 16.36C129.143 15.8 128.963 15.36 128.603 15.04C128.243 14.7333 127.543 14.5533 126.503 14.5C125.69 14.4467 125.01 14.3733 124.463 14.28C123.916 14.1867 123.463 14.08 123.103 13.96C122.756 13.8267 122.463 13.68 122.223 13.52C121.996 13.36 121.79 13.1933 121.603 13.02V12.56L123.583 10.66L125.163 11.18L123.003 12.96L123.263 12.2C123.41 12.3067 123.55 12.4067 123.683 12.5C123.816 12.5933 123.996 12.68 124.223 12.76C124.463 12.8267 124.79 12.8933 125.203 12.96C125.63 13.0267 126.19 13.0867 126.883 13.14C127.843 13.2067 128.61 13.3667 129.183 13.62C129.756 13.8733 130.17 14.2267 130.423 14.68C130.676 15.12 130.803 15.66 130.803 16.3C130.803 16.86 130.643 17.3933 130.323 17.9C130.016 18.4067 129.523 18.82 128.843 19.14C128.176 19.4733 127.31 19.64 126.243 19.64ZM126.223 11.72C125.37 11.72 124.643 11.56 124.043 11.24C123.456 10.9067 123.01 10.46 122.703 9.9C122.396 9.32667 122.243 8.68667 122.243 7.98C122.243 7.27333 122.396 6.64 122.703 6.08C123.023 5.52 123.476 5.07333 124.063 4.74C124.663 4.40667 125.383 4.24 126.223 4.24C127.09 4.24 127.816 4.40667 128.403 4.74C128.99 5.07333 129.436 5.52 129.743 6.08C130.05 6.64 130.203 7.27333 130.203 7.98C130.203 8.68667 130.05 9.32667 129.743 9.9C129.436 10.46 128.99 10.9067 128.403 11.24C127.816 11.56 127.09 11.72 126.223 11.72ZM126.223 10.34C126.97 10.34 127.55 10.1467 127.963 9.76C128.376 9.36 128.583 8.76667 128.583 7.98C128.583 7.19333 128.376 6.60667 127.963 6.22C127.55 5.83333 126.97 5.64 126.223 5.64C125.516 5.64 124.936 5.83333 124.483 6.22C124.043 6.60667 123.823 7.19333 123.823 7.98C123.823 8.76667 124.036 9.36 124.463 9.76C124.903 10.1467 125.49 10.34 126.223 10.34ZM127.983 5.9L127.483 4.48H131.603V5.74L127.983 5.9ZM133.627 15V0.599999H135.307V6.18C135.654 5.58 136.127 5.10667 136.727 4.76C137.327 4.41333 137.974 4.24 138.667 4.24C139.48 4.24 140.167 4.39333 140.727 4.7C141.3 4.99333 141.734 5.44667 142.027 6.06C142.334 6.67333 142.487 7.45333 142.487 8.4V15H140.827V8.58C140.827 7.62 140.6 6.9 140.147 6.42C139.694 5.92667 139.08 5.68 138.307 5.68C137.76 5.68 137.26 5.81333 136.807 6.08C136.354 6.33333 135.987 6.71333 135.707 7.22C135.44 7.72667 135.307 8.34 135.307 9.06V15H133.627ZM155.159 15.24C154.265 15.24 153.452 15.08 152.719 14.76C151.999 14.4267 151.425 13.9333 150.999 13.28C150.572 12.6267 150.345 11.8133 150.319 10.84H152.019C152.032 11.3733 152.159 11.8667 152.399 12.32C152.652 12.76 153.012 13.1133 153.479 13.38C153.945 13.6467 154.505 13.78 155.159 13.78C155.812 13.78 156.359 13.6533 156.799 13.4C157.239 13.1467 157.572 12.8133 157.799 12.4C158.025 11.9733 158.139 11.5 158.139 10.98C158.139 10.3533 157.979 9.84667 157.659 9.46C157.352 9.06 156.932 8.76667 156.399 8.58C155.879 8.38 155.305 8.28 154.679 8.28H153.639V6.86H154.679C155.625 6.86 156.365 6.64667 156.899 6.22C157.445 5.78 157.719 5.17333 157.719 4.4C157.719 3.77333 157.505 3.25333 157.079 2.84C156.652 2.42667 156.012 2.22 155.159 2.22C154.319 2.22 153.659 2.44667 153.179 2.9C152.699 3.35333 152.425 3.93333 152.359 4.64H150.659C150.699 3.88 150.905 3.20667 151.279 2.62C151.665 2.03333 152.185 1.58 152.839 1.26C153.505 0.926666 154.279 0.76 155.159 0.76C156.092 0.76 156.872 0.92 157.499 1.24C158.139 1.56 158.619 1.98667 158.939 2.52C159.259 3.05333 159.419 3.64667 159.419 4.3C159.419 4.78 159.325 5.24 159.139 5.68C158.965 6.12 158.699 6.5 158.339 6.82C157.979 7.14 157.519 7.36667 156.959 7.5C157.505 7.60667 157.992 7.81333 158.419 8.12C158.859 8.42667 159.205 8.82 159.459 9.3C159.712 9.78 159.839 10.34 159.839 10.98C159.839 11.74 159.659 12.4467 159.299 13.1C158.952 13.74 158.432 14.26 157.739 14.66C157.045 15.0467 156.185 15.24 155.159 15.24ZM167.752 15.24C166.592 15.24 165.592 14.94 164.752 14.34C163.925 13.7267 163.285 12.88 162.832 11.8C162.379 10.7067 162.152 9.44 162.152 8C162.152 6.56 162.379 5.3 162.832 4.22C163.285 3.12667 163.925 2.28 164.752 1.68C165.592 1.06667 166.592 0.76 167.752 0.76C168.912 0.76 169.905 1.06667 170.732 1.68C171.559 2.28 172.192 3.12667 172.632 4.22C173.085 5.3 173.312 6.56 173.312 8C173.312 9.44 173.085 10.7067 172.632 11.8C172.192 12.88 171.559 13.7267 170.732 14.34C169.905 14.94 168.912 15.24 167.752 15.24ZM167.752 13.76C168.485 13.76 169.139 13.5333 169.712 13.08C170.285 12.6133 170.739 11.9533 171.072 11.1C171.419 10.2333 171.592 9.2 171.592 8C171.592 6.78667 171.419 5.75333 171.072 4.9C170.739 4.04667 170.285 3.39333 169.712 2.94C169.139 2.48667 168.485 2.26 167.752 2.26C167.005 2.26 166.339 2.48667 165.752 2.94C165.165 3.39333 164.705 4.04667 164.372 4.9C164.039 5.75333 163.872 6.78667 163.872 8C163.872 9.2 164.039 10.2333 164.372 11.1C164.705 11.9533 165.165 12.6133 165.752 13.08C166.339 13.5333 167.005 13.76 167.752 13.76ZM180.877 15.24C179.717 15.24 178.717 14.94 177.877 14.34C177.05 13.7267 176.41 12.88 175.957 11.8C175.504 10.7067 175.277 9.44 175.277 8C175.277 6.56 175.504 5.3 175.957 4.22C176.41 3.12667 177.05 2.28 177.877 1.68C178.717 1.06667 179.717 0.76 180.877 0.76C182.037 0.76 183.03 1.06667 183.857 1.68C184.684 2.28 185.317 3.12667 185.757 4.22C186.21 5.3 186.437 6.56 186.437 8C186.437 9.44 186.21 10.7067 185.757 11.8C185.317 12.88 184.684 13.7267 183.857 14.34C183.03 14.94 182.037 15.24 180.877 15.24ZM180.877 13.76C181.61 13.76 182.264 13.5333 182.837 13.08C183.41 12.6133 183.864 11.9533 184.197 11.1C184.544 10.2333 184.717 9.2 184.717 8C184.717 6.78667 184.544 5.75333 184.197 4.9C183.864 4.04667 183.41 3.39333 182.837 2.94C182.264 2.48667 181.61 2.26 180.877 2.26C180.13 2.26 179.464 2.48667 178.877 2.94C178.29 3.39333 177.83 4.04667 177.497 4.9C177.164 5.75333 176.997 6.78667 176.997 8C176.997 9.2 177.164 10.2333 177.497 11.1C177.83 11.9533 178.29 12.6133 178.877 13.08C179.464 13.5333 180.13 13.76 180.877 13.76ZM192.142 13.56V4.84H193.662V13.56H192.142ZM188.342 9.9V8.48H197.482V9.9H188.342ZM205.209 15V4.48H206.729L206.809 5.92C207.129 5.4 207.562 4.99333 208.109 4.7C208.656 4.39333 209.229 4.24 209.829 4.24C210.336 4.24 210.789 4.31333 211.189 4.46C211.602 4.59333 211.962 4.80667 212.269 5.1C212.576 5.38 212.822 5.73333 213.009 6.16C213.356 5.53333 213.822 5.06 214.409 4.74C215.009 4.40667 215.636 4.24 216.289 4.24C217.062 4.24 217.722 4.39333 218.269 4.7C218.829 4.99333 219.256 5.44667 219.549 6.06C219.856 6.66 220.009 7.41333 220.009 8.32V15H218.349V8.5C218.349 7.55333 218.142 6.84667 217.729 6.38C217.316 5.91333 216.756 5.68 216.049 5.68C215.569 5.68 215.129 5.80667 214.729 6.06C214.342 6.31333 214.029 6.68667 213.789 7.18C213.562 7.67333 213.449 8.27333 213.449 8.98V15H211.769V8.5C211.769 7.55333 211.562 6.84667 211.149 6.38C210.736 5.91333 210.182 5.68 209.489 5.68C209.022 5.68 208.589 5.80667 208.189 6.06C207.802 6.31333 207.489 6.68667 207.249 7.18C207.009 7.67333 206.889 8.27333 206.889 8.98V15H205.209ZM227.307 15.24C226.334 15.24 225.474 15.0133 224.727 14.56C223.981 14.1067 223.401 13.4667 222.987 12.64C222.574 11.8133 222.367 10.8467 222.367 9.74C222.367 8.62 222.574 7.65333 222.987 6.84C223.414 6.01333 224.001 5.37333 224.747 4.92C225.507 4.46667 226.374 4.24 227.347 4.24C228.334 4.24 229.194 4.46667 229.927 4.92C230.674 5.37333 231.254 6.01333 231.667 6.84C232.081 7.65333 232.287 8.62 232.287 9.74C232.287 10.8467 232.074 11.8133 231.647 12.64C231.234 13.4667 230.654 14.1067 229.907 14.56C229.161 15.0133 228.294 15.24 227.307 15.24ZM227.307 13.8C227.921 13.8 228.474 13.6533 228.967 13.36C229.461 13.0533 229.847 12.6 230.127 12C230.421 11.3867 230.567 10.6333 230.567 9.74C230.567 8.83333 230.427 8.08 230.147 7.48C229.867 6.88 229.481 6.43333 228.987 6.14C228.507 5.83333 227.961 5.68 227.347 5.68C226.747 5.68 226.201 5.83333 225.707 6.14C225.214 6.43333 224.821 6.88 224.527 7.48C224.234 8.08 224.087 8.83333 224.087 9.74C224.087 10.6333 224.227 11.3867 224.507 12C224.801 12.6 225.187 13.0533 225.667 13.36C226.161 13.6533 226.707 13.8 227.307 13.8ZM237.273 15L233.273 4.48H235.053L238.253 13.38L241.473 4.48H243.193L239.213 15H237.273ZM245.252 15V4.48H246.932V15H245.252ZM246.092 2.48C245.759 2.48 245.479 2.37333 245.252 2.16C245.039 1.93333 244.932 1.65333 244.932 1.32C244.932 0.986666 245.039 0.719999 245.252 0.519999C245.479 0.306666 245.759 0.2 246.092 0.2C246.412 0.2 246.685 0.306666 246.912 0.519999C247.139 0.719999 247.252 0.986666 247.252 1.32C247.252 1.65333 247.139 1.93333 246.912 2.16C246.685 2.37333 246.412 2.48 246.092 2.48ZM254.276 15.24C253.343 15.24 252.516 15.0133 251.796 14.56C251.076 14.1067 250.509 13.4667 250.096 12.64C249.696 11.8133 249.496 10.8467 249.496 9.74C249.496 8.63333 249.696 7.66667 250.096 6.84C250.509 6.01333 251.076 5.37333 251.796 4.92C252.529 4.46667 253.369 4.24 254.316 4.24C255.329 4.24 256.176 4.46667 256.856 4.92C257.536 5.37333 258.049 5.98 258.396 6.74C258.743 7.5 258.916 8.33333 258.916 9.24C258.916 9.37333 258.916 9.50667 258.916 9.64C258.916 9.77333 258.909 9.93333 258.896 10.12H250.756V8.82H257.276C257.249 7.79333 256.949 7.01333 256.376 6.48C255.816 5.93333 255.116 5.66 254.276 5.66C253.716 5.66 253.196 5.8 252.716 6.08C252.249 6.34667 251.869 6.74667 251.576 7.28C251.283 7.81333 251.136 8.48 251.136 9.28V9.84C251.136 10.72 251.283 11.46 251.576 12.06C251.869 12.6467 252.249 13.0867 252.716 13.38C253.196 13.6733 253.716 13.82 254.276 13.82C255.023 13.82 255.609 13.68 256.036 13.4C256.463 13.1067 256.776 12.6933 256.976 12.16H258.636C258.476 12.7467 258.196 13.2733 257.796 13.74C257.409 14.2067 256.916 14.5733 256.316 14.84C255.729 15.1067 255.049 15.24 254.276 15.24ZM265.044 15.24C264.098 15.24 263.311 15.1 262.684 14.82C262.071 14.5267 261.604 14.1267 261.284 13.62C260.964 13.1 260.771 12.5 260.704 11.82H262.424C262.478 12.18 262.598 12.5133 262.784 12.82C262.984 13.1133 263.271 13.3533 263.644 13.54C264.018 13.7267 264.491 13.82 265.064 13.82C265.518 13.82 265.904 13.7533 266.224 13.62C266.544 13.4733 266.784 13.2733 266.944 13.02C267.118 12.7667 267.204 12.4733 267.204 12.14C267.204 11.7 267.104 11.36 266.904 11.12C266.718 10.8667 266.438 10.68 266.064 10.56C265.704 10.4267 265.251 10.3267 264.704 10.26C264.118 10.18 263.598 10.0667 263.144 9.92C262.691 9.77333 262.304 9.58 261.984 9.34C261.678 9.1 261.444 8.8 261.284 8.44C261.124 8.08 261.044 7.65333 261.044 7.16C261.044 6.58667 261.198 6.08 261.504 5.64C261.811 5.2 262.244 4.86 262.804 4.62C263.378 4.36667 264.051 4.24 264.824 4.24C265.958 4.24 266.851 4.5 267.504 5.02C268.171 5.54 268.564 6.28 268.684 7.24H267.024C266.958 6.74667 266.731 6.36 266.344 6.08C265.958 5.8 265.444 5.66 264.804 5.66C264.124 5.66 263.611 5.78667 263.264 6.04C262.918 6.29333 262.744 6.62667 262.744 7.04C262.744 7.34667 262.818 7.62667 262.964 7.88C263.124 8.12 263.391 8.32667 263.764 8.5C264.138 8.66 264.638 8.78 265.264 8.86C266.051 8.95333 266.718 9.10667 267.264 9.32C267.811 9.52 268.224 9.83333 268.504 10.26C268.798 10.6867 268.938 11.2667 268.924 12C268.924 12.6933 268.758 13.28 268.424 13.76C268.104 14.24 267.651 14.6067 267.064 14.86C266.491 15.1133 265.818 15.24 265.044 15.24ZM281.311 15.24C280.338 15.24 279.478 15.0133 278.731 14.56C277.984 14.1067 277.404 13.4667 276.991 12.64C276.578 11.8133 276.371 10.8467 276.371 9.74C276.371 8.62 276.578 7.65333 276.991 6.84C277.418 6.01333 278.004 5.37333 278.751 4.92C279.511 4.46667 280.378 4.24 281.351 4.24C282.338 4.24 283.198 4.46667 283.931 4.92C284.678 5.37333 285.258 6.01333 285.671 6.84C286.084 7.65333 286.291 8.62 286.291 9.74C286.291 10.8467 286.078 11.8133 285.651 12.64C285.238 13.4667 284.658 14.1067 283.911 14.56C283.164 15.0133 282.298 15.24 281.311 15.24ZM281.311 13.8C281.924 13.8 282.478 13.6533 282.971 13.36C283.464 13.0533 283.851 12.6 284.131 12C284.424 11.3867 284.571 10.6333 284.571 9.74C284.571 8.83333 284.431 8.08 284.151 7.48C283.871 6.88 283.484 6.43333 282.991 6.14C282.511 5.83333 281.964 5.68 281.351 5.68C280.751 5.68 280.204 5.83333 279.711 6.14C279.218 6.43333 278.824 6.88 278.531 7.48C278.238 8.08 278.091 8.83333 278.091 9.74C278.091 10.6333 278.231 11.3867 278.511 12C278.804 12.6 279.191 13.0533 279.671 13.36C280.164 13.6533 280.711 13.8 281.311 13.8ZM288.725 15V4.48H290.245L290.325 6.14C290.631 5.54 291.071 5.07333 291.645 4.74C292.231 4.40667 292.905 4.24 293.665 4.24C294.438 4.24 295.111 4.38667 295.685 4.68C296.258 4.97333 296.705 5.42 297.025 6.02C297.345 6.62 297.505 7.38 297.505 8.3V15H295.825V8.48C295.825 7.54667 295.591 6.84667 295.125 6.38C294.671 5.91333 294.058 5.68 293.285 5.68C292.765 5.68 292.285 5.80667 291.845 6.06C291.405 6.3 291.051 6.66 290.785 7.14C290.531 7.62 290.405 8.20667 290.405 8.9V15H288.725ZM300.287 15V0.599999H301.967V15H300.287ZM304.959 15V4.48H306.639V15H304.959ZM305.799 2.48C305.466 2.48 305.186 2.37333 304.959 2.16C304.746 1.93333 304.639 1.65333 304.639 1.32C304.639 0.986666 304.746 0.719999 304.959 0.519999C305.186 0.306666 305.466 0.2 305.799 0.2C306.119 0.2 306.392 0.306666 306.619 0.519999C306.846 0.719999 306.959 0.986666 306.959 1.32C306.959 1.65333 306.846 1.93333 306.619 2.16C306.392 2.37333 306.119 2.48 305.799 2.48ZM309.623 15V4.48H311.143L311.223 6.14C311.53 5.54 311.97 5.07333 312.543 4.74C313.13 4.40667 313.803 4.24 314.563 4.24C315.336 4.24 316.01 4.38667 316.583 4.68C317.156 4.97333 317.603 5.42 317.923 6.02C318.243 6.62 318.403 7.38 318.403 8.3V15H316.723V8.48C316.723 7.54667 316.49 6.84667 316.023 6.38C315.57 5.91333 314.956 5.68 314.183 5.68C313.663 5.68 313.183 5.80667 312.743 6.06C312.303 6.3 311.95 6.66 311.683 7.14C311.43 7.62 311.303 8.20667 311.303 8.9V15H309.623ZM325.546 15.24C324.612 15.24 323.786 15.0133 323.066 14.56C322.346 14.1067 321.779 13.4667 321.366 12.64C320.966 11.8133 320.766 10.8467 320.766 9.74C320.766 8.63333 320.966 7.66667 321.366 6.84C321.779 6.01333 322.346 5.37333 323.066 4.92C323.799 4.46667 324.639 4.24 325.586 4.24C326.599 4.24 327.446 4.46667 328.126 4.92C328.806 5.37333 329.319 5.98 329.666 6.74C330.012 7.5 330.186 8.33333 330.186 9.24C330.186 9.37333 330.186 9.50667 330.186 9.64C330.186 9.77333 330.179 9.93333 330.166 10.12H322.026V8.82H328.546C328.519 7.79333 328.219 7.01333 327.646 6.48C327.086 5.93333 326.386 5.66 325.546 5.66C324.986 5.66 324.466 5.8 323.986 6.08C323.519 6.34667 323.139 6.74667 322.846 7.28C322.552 7.81333 322.406 8.48 322.406 9.28V9.84C322.406 10.72 322.552 11.46 322.846 12.06C323.139 12.6467 323.519 13.0867 323.986 13.38C324.466 13.6733 324.986 13.82 325.546 13.82C326.292 13.82 326.879 13.68 327.306 13.4C327.732 13.1067 328.046 12.6933 328.246 12.16H329.906C329.746 12.7467 329.466 13.2733 329.066 13.74C328.679 14.2067 328.186 14.5733 327.586 14.84C326.999 15.1067 326.319 15.24 325.546 15.24Z" fill="#A8B5DB"/>
</svg>
